
<svg width="108px" height="41px" viewBox="0 0 108 41" version="1.1" xmlns="http://www.w3.org/2000/svg" xmlns:xlink="http://www.w3.org/1999/xlink">
            <rect id="Rectangle" fill="#ED225D" x="0" y="0" width="108" height="41"></rect>
            <path d="M18.9128327,25.8181818 C19.0048428,25.9393945 19.0240113,26.0568176 18.9703387,26.1704545 C18.9166662,26.2840915 18.8284911,26.3712118 18.7058109,26.4318182 C18.3837754,26.5833341 18.0195741,26.7159085 17.6131959,26.8295455 C17.2068178,26.9431824 16.7276055,27 16.1755446,27 C15.5008036,27 14.8490749,26.856062 14.2203389,26.5681818 C13.5916029,26.2803016 13.0395503,25.890154 12.5641646,25.3977273 C12.0887789,24.9053006 11.7092427,24.3257609 11.4255448,23.6590909 C11.1418468,22.9924209 11,22.2803068 11,21.5227273 L11,21.4772727 C11,20.7196932 11.1418468,20.0075791 11.4255448,19.3409091 C11.7092427,18.6742391 12.0887789,18.0946994 12.5641646,17.6022727 C13.0395503,17.109846 13.5916029,16.7196984 14.2203389,16.4318182 C14.8490749,16.143938 15.5008036,16 16.1755446,16 C17.034306,16 17.8777196,16.189392 18.7058109,16.5681818 C18.782486,16.6287882 18.8553263,16.6931815 18.9243339,16.7613636 C18.9933415,16.8295458 19.0048426,16.9318175 18.9588375,17.0681818 L18.1307504,18.5681818 C18.0540753,18.6893945 17.9505654,18.7765149 17.8202177,18.8295455 C17.68987,18.882576 17.563358,18.8712125 17.4406778,18.7954545 C17.0726372,18.6439386 16.6509304,18.5681818 16.1755446,18.5681818 C15.8075041,18.5681818 15.4624712,18.6439386 15.1404357,18.7954545 C14.8184002,18.9469705 14.5385402,19.1553017 14.3008474,19.4204545 C14.0631545,19.6856074 13.8753033,19.9962103 13.7372881,20.3522727 C13.5992728,20.7083351 13.5302663,21.090907 13.5302663,21.5 C13.5302663,21.909093 13.5992728,22.2954527 13.7372881,22.6590909 C13.8753033,23.0227291 14.0631545,23.333332 14.3008474,23.5909091 C14.5385402,23.8484861 14.8184002,24.0530295 15.1404357,24.2045455 C15.4624712,24.3560614 15.8075041,24.4318182 16.1755446,24.4318182 C16.6509304,24.4318182 17.0726372,24.3560614 17.4406778,24.2045455 C17.563358,24.1287875 17.68987,24.117424 17.8202177,24.1704545 C17.9505654,24.2234851 18.0540753,24.3106055 18.1307504,24.4318182 L18.9128327,25.8181818 Z M33.9064327,16.0691824 C34.5302175,16.0691824 35.0916154,16.1806418 35.5906433,16.4035639 C36.0896711,16.6264861 36.5185167,16.9416472 36.877193,17.3490566 C37.2358692,17.756466 37.5126696,18.2407379 37.7076023,18.8018868 C37.9025351,19.3630356 38,19.9818275 38,20.6582809 L38,26.4465409 C38,26.6002803 37.9454196,26.7309568 37.8362573,26.8385744 C37.727095,26.946192 37.5867455,27 37.4152047,27 L35.8479532,27 C35.6764124,27 35.5360629,26.946192 35.4269006,26.8385744 C35.3177382,26.7309568 35.2631579,26.6002803 35.2631579,26.4465409 L35.2631579,20.5660377 C35.2631579,20.3815504 35.2319691,20.1778488 35.1695906,19.9549266 C35.1072122,19.7320045 35.0019501,19.5283028 34.8538012,19.3438155 C34.7056523,19.1593282 34.5068239,19.0017477 34.2573099,18.8710692 C34.007796,18.7403907 33.6881111,18.6750524 33.2982456,18.6750524 C32.7056501,18.6750524 32.1988325,18.8749106 31.7777778,19.2746331 C31.356723,19.6743556 31.1461988,20.2585566 31.1461988,21.0272537 L31.1461988,26.5157233 C31.1461988,26.6540887 31.0955171,26.7693916 30.994152,26.8616352 C30.892787,26.9538789 30.7719305,27 30.6315789,27 L28.994152,27 C28.8538005,27 28.732944,26.946192 28.6315789,26.8385744 C28.5302139,26.7309568 28.4795322,26.6002803 28.4795322,26.4465409 L28.4795322,20.5660377 C28.4795322,20.3815504 28.4483434,20.1778488 28.3859649,19.9549266 C28.3235864,19.7320045 28.2183243,19.5244594 28.0701754,19.3322851 C27.9220265,19.1401108 27.7192995,18.9786869 27.4619883,18.8480084 C27.2046771,18.7173299 26.8810936,18.6519916 26.4912281,18.6519916 C26.2573088,18.6519916 26.0350888,18.709643 25.8245614,18.8249476 C25.614034,18.9402521 25.4230028,19.0978327 25.251462,19.2976939 C25.0799212,19.4975552 24.9434703,19.7396911 24.8421053,20.024109 C24.7407402,20.3085269 24.6900585,20.6198446 24.6900585,20.9580713 L24.6900585,26.4465409 C24.6900585,26.6002803 24.6354781,26.7309568 24.5263158,26.8385744 C24.4171535,26.946192 24.2923984,27 24.1520468,27 L22.5614035,27 C22.4054573,27 22.272905,26.946192 22.1637427,26.8385744 C22.0545804,26.7309568 22,26.6002803 22,26.4465409 L22,16.8763103 C22,16.7379448 22.0545804,16.6187985 22.1637427,16.5188679 C22.272905,16.4189373 22.4054573,16.3689727 22.5614035,16.3689727 L24.0116959,16.3689727 C24.1832367,16.3689727 24.3196876,16.4189373 24.4210526,16.5188679 C24.5224177,16.6187985 24.5730994,16.7379448 24.5730994,16.8763103 L24.5730994,17.0146751 C24.5730994,17.0761708 24.5925924,17.1261354 24.6315789,17.1645702 C24.6705655,17.2030051 24.7056529,17.2222222 24.7368421,17.2222222 C24.8460044,17.2529701 24.9122806,17.2568135 24.9356725,17.2337526 C24.9590644,17.2106917 24.9863546,17.168414 25.0175439,17.1069182 C25.6413287,16.3689691 26.343076,16 27.122807,16 C27.8401595,16 28.4756308,16.1575805 29.0292398,16.4727463 C29.5828488,16.7879121 30.0311874,17.191472 30.374269,17.6834382 C30.5302152,17.9294212 30.6939563,17.9371081 30.8654971,17.706499 L30.8654971,17.6834382 C31.239768,17.2683417 31.5594529,16.9762412 31.8245614,16.8071279 C32.1364538,16.5457709 32.4834289,16.3574429 32.8654971,16.2421384 C33.2475653,16.1268338 33.5945404,16.0691824 33.9064327,16.0691824 Z M44.5159334,20.2079002 C45.1532659,20.3146228 45.7450657,20.4365898 46.2913506,20.5738046 C46.8376356,20.7110194 47.3118342,20.9015927 47.7139606,21.1455301 C48.116087,21.3894676 48.4309549,21.7020078 48.6585736,22.0831601 C48.8861923,22.4643124 49,22.9369341 49,23.5010395 C49,24.0041605 48.8899859,24.4729708 48.6699545,24.9074844 C48.4499231,25.341998 48.1388488,25.7117102 47.7367224,26.016632 C47.3345959,26.3215538 46.8528102,26.5616762 46.2913506,26.7370062 C45.7298911,26.9123363 45.1077426,27 44.4248864,27 C43.9241252,27 43.4423394,26.9352051 42.9795147,26.8056133 C42.5166899,26.6760215 42.091808,26.4854482 41.7048562,26.2338877 C41.3179043,25.9823272 40.9840685,25.6735985 40.7033388,25.3076923 C40.422609,24.9417861 40.2063744,24.5301478 40.0546286,24.0727651 C39.9635811,23.9050581 39.9863427,23.7373536 40.1229139,23.5696466 C40.2139614,23.4324317 40.3581178,23.3638254 40.5553873,23.3638254 L42.1714722,23.3638254 C42.3535672,23.3638254 42.5053108,23.4324317 42.6267074,23.5696466 C42.8846753,23.9507989 43.1881624,24.2099785 43.5371778,24.3471933 C43.8861932,24.4844082 44.2276161,24.5530146 44.5614569,24.5530146 C45.0925673,24.5530146 45.5212428,24.4767852 45.8474963,24.3243243 C46.1737499,24.1718634 46.3368742,23.9507984 46.3368742,23.6611227 C46.3368742,23.5086617 46.3065255,23.3752604 46.2458271,23.2609148 C46.1851288,23.1465691 46.0751147,23.0436595 45.9157816,22.952183 C45.7564485,22.8607064 45.5326268,22.7806656 45.2443097,22.7120582 C44.9559927,22.6434508 44.5918082,22.571033 44.1517453,22.4948025 C43.7723807,22.4338181 43.3474988,22.3461544 42.8770868,22.2318087 C42.4066747,22.117463 41.9666184,21.9459471 41.5569047,21.7172557 C41.147191,21.4885643 40.805768,21.1874586 40.5326256,20.8139293 C40.2594831,20.4404001 40.1229139,19.9639669 40.1229139,19.3846154 C40.1229139,18.9729709 40.21396,18.5651441 40.396055,18.1611227 C40.57815,17.7571012 40.8437012,17.395012 41.1927166,17.0748441 C41.541732,16.7546762 41.9704075,16.4954965 42.478756,16.2972973 C42.9871045,16.0990981 43.5751107,16 44.2427923,16 C45.2898385,16 46.1851254,16.2324994 46.9286799,16.6975052 C47.6722344,17.162511 48.210924,17.7914028 48.5447648,18.5841996 C48.5902886,18.7671527 48.5599399,18.9272342 48.4537178,19.0644491 C48.4233686,19.1406795 48.3626712,19.201663 48.2716237,19.2474012 C48.1805762,19.2931395 48.0895301,19.3160083 47.9984826,19.3160083 L46.3596359,19.3160083 C46.2685884,19.3160083 46.1813359,19.2931395 46.0978757,19.2474012 C46.0144155,19.201663 45.9347501,19.1406795 45.8588772,19.0644491 C45.7374806,18.881496 45.5250396,18.7328488 45.221548,18.6185031 C44.9180563,18.5041574 44.5918077,18.4393625 44.2427923,18.4241164 C43.9393007,18.4088703 43.696511,18.4241162 43.514416,18.4698545 C43.332321,18.5155927 43.1919583,18.5841991 43.0933235,18.6756757 C42.9946887,18.7671522 42.9301977,18.8700618 42.8998485,18.9844075 C42.8694994,19.0987532 42.854325,19.2016627 42.854325,19.2931393 C42.854325,19.5523228 42.9643391,19.7352732 43.1843705,19.8419958 C43.404402,19.9487185 43.8482518,20.0706854 44.5159334,20.2079002 Z M58.9128327,25.8181818 C59.0048428,25.9393945 59.0240113,26.0568176 58.9703387,26.1704545 C58.9166662,26.2840915 58.8284911,26.3712118 58.7058109,26.4318182 C58.3837754,26.5833341 58.0195741,26.7159085 57.6131959,26.8295455 C57.2068178,26.9431824 56.7276055,27 56.1755446,27 C55.5008036,27 54.8490749,26.856062 54.2203389,26.5681818 C53.5916029,26.2803016 53.0395503,25.890154 52.5641646,25.3977273 C52.0887789,24.9053006 51.7092427,24.3257609 51.4255448,23.6590909 C51.1418468,22.9924209 51,22.2803068 51,21.5227273 L51,21.4772727 C51,20.7196932 51.1418468,20.0075791 51.4255448,19.3409091 C51.7092427,18.6742391 52.0887789,18.0946994 52.5641646,17.6022727 C53.0395503,17.109846 53.5916029,16.7196984 54.2203389,16.4318182 C54.8490749,16.143938 55.5008036,16 56.1755446,16 C57.034306,16 57.8777196,16.189392 58.7058109,16.5681818 C58.782486,16.6287882 58.8553263,16.6931815 58.9243339,16.7613636 C58.9933415,16.8295458 59.0048426,16.9318175 58.9588375,17.0681818 L58.1307504,18.5681818 C58.0540753,18.6893945 57.9505654,18.7765149 57.8202177,18.8295455 C57.68987,18.882576 57.563358,18.8712125 57.4406778,18.7954545 C57.0726372,18.6439386 56.6509304,18.5681818 56.1755446,18.5681818 C55.8075041,18.5681818 55.4624712,18.6439386 55.1404357,18.7954545 C54.8184002,18.9469705 54.5385402,19.1553017 54.3008474,19.4204545 C54.0631545,19.6856074 53.8753033,19.9962103 53.7372881,20.3522727 C53.5992728,20.7083351 53.5302663,21.090907 53.5302663,21.5 C53.5302663,21.909093 53.5992728,22.2954527 53.7372881,22.6590909 C53.8753033,23.0227291 54.0631545,23.333332 54.3008474,23.5909091 C54.5385402,23.8484861 54.8184002,24.0530295 55.1404357,24.2045455 C55.4624712,24.3560614 55.8075041,24.4318182 56.1755446,24.4318182 C56.6509304,24.4318182 57.0726372,24.3560614 57.4406778,24.2045455 C57.563358,24.1287875 57.68987,24.117424 57.8202177,24.1704545 C57.9505654,24.2234851 58.0540753,24.3106055 58.1307504,24.4318182 L58.9128327,25.8181818 Z M64.7002141,11 C64.7858677,11 64.8572445,11.0349341 64.9143469,11.1048035 C64.9714493,11.1746728 65,11.2484227 65,11.3260553 L65,26.6739447 C65,26.7515773 64.9714493,26.8253272 64.9143469,26.8951965 C64.8572445,26.9650659 64.7858677,27 64.7002141,27 L62.8158459,27 C62.7301923,27 62.6588155,26.9650659 62.6017131,26.8951965 C62.5446108,26.8253272 62.51606,26.7515773 62.51606,26.6739447 L62.51606,15.4949054 C62.51606,15.3241137 62.4161324,15.2387191 62.2162742,15.2387191 L60.3104926,15.2387191 C60.2391147,15.2387191 60.1713066,15.2231928 60.1070665,15.1921397 C60.0428264,15.1610867 60.0107068,15.0989815 60.0107068,15.0058224 L60.0107068,14.1208151 C59.9821556,14.0121295 60.0107063,13.9112086 60.0963599,13.8180495 L63.1584583,11.069869 C63.2012851,11.0232894 63.2512489,11 63.3083512,11 L64.7002141,11 Z M72.7002141,11 C72.7858677,11 72.8572445,11.0349341 72.9143469,11.1048035 C72.9714493,11.1746728 73,11.2484227 73,11.3260553 L73,26.6739447 C73,26.7515773 72.9714493,26.8253272 72.9143469,26.8951965 C72.8572445,26.9650659 72.7858677,27 72.7002141,27 L70.8158459,27 C70.7301923,27 70.6588155,26.9650659 70.6017131,26.8951965 C70.5446108,26.8253272 70.51606,26.7515773 70.51606,26.6739447 L70.51606,15.4949054 C70.51606,15.3241137 70.4161324,15.2387191 70.2162742,15.2387191 L68.3104926,15.2387191 C68.2391147,15.2387191 68.1713066,15.2231928 68.1070665,15.1921397 C68.0428264,15.1610867 68.0107068,15.0989815 68.0107068,15.0058224 L68.0107068,14.1208151 C67.9821556,14.0121295 68.0107063,13.9112086 68.0963599,13.8180495 L71.1584583,11.069869 C71.2012851,11.0232894 71.2512489,11 71.3083512,11 L72.7002141,11 Z M80.7002141,11 C80.7858677,11 80.8572445,11.0349341 80.9143469,11.1048035 C80.9714493,11.1746728 81,11.2484227 81,11.3260553 L81,26.6739447 C81,26.7515773 80.9714493,26.8253272 80.9143469,26.8951965 C80.8572445,26.9650659 80.7858677,27 80.7002141,27 L78.8158459,27 C78.7301923,27 78.6588155,26.9650659 78.6017131,26.8951965 C78.5446108,26.8253272 78.51606,26.7515773 78.51606,26.6739447 L78.51606,15.4949054 C78.51606,15.3241137 78.4161324,15.2387191 78.2162742,15.2387191 L76.3104926,15.2387191 C76.2391147,15.2387191 76.1713066,15.2231928 76.1070665,15.1921397 C76.0428264,15.1610867 76.0107068,15.0989815 76.0107068,15.0058224 L76.0107068,14.1208151 C75.9821556,14.0121295 76.0107063,13.9112086 76.0963599,13.8180495 L79.1584583,11.069869 C79.2012851,11.0232894 79.2512489,11 79.3083512,11 L80.7002141,11 Z M88.7002141,11 C88.7858677,11 88.8572445,11.0349341 88.9143469,11.1048035 C88.9714493,11.1746728 89,11.2484227 89,11.3260553 L89,26.6739447 C89,26.7515773 88.9714493,26.8253272 88.9143469,26.8951965 C88.8572445,26.9650659 88.7858677,27 88.7002141,27 L86.8158459,27 C86.7301923,27 86.6588155,26.9650659 86.6017131,26.8951965 C86.5446108,26.8253272 86.51606,26.7515773 86.51606,26.6739447 L86.51606,15.4949054 C86.51606,15.3241137 86.4161324,15.2387191 86.2162742,15.2387191 L84.3104926,15.2387191 C84.2391147,15.2387191 84.1713066,15.2231928 84.1070665,15.1921397 C84.0428264,15.1610867 84.0107068,15.0989815 84.0107068,15.0058224 L84.0107068,14.1208151 C83.9821556,14.0121295 84.0107063,13.9112086 84.0963599,13.8180495 L87.1584583,11.069869 C87.2012851,11.0232894 87.2512489,11 87.3083512,11 L88.7002141,11 Z M96.7002141,11 C96.7858677,11 96.8572445,11.0349341 96.9143469,11.1048035 C96.9714493,11.1746728 97,11.2484227 97,11.3260553 L97,26.6739447 C97,26.7515773 96.9714493,26.8253272 96.9143469,26.8951965 C96.8572445,26.9650659 96.7858677,27 96.7002141,27 L94.8158459,27 C94.7301923,27 94.6588155,26.9650659 94.6017131,26.8951965 C94.5446108,26.8253272 94.51606,26.7515773 94.51606,26.6739447 L94.51606,15.4949054 C94.51606,15.3241137 94.4161324,15.2387191 94.2162742,15.2387191 L92.3104926,15.2387191 C92.2391147,15.2387191 92.1713066,15.2231928 92.1070665,15.1921397 C92.0428264,15.1610867 92.0107068,15.0989815 92.0107068,15.0058224 L92.0107068,14.1208151 C91.9821556,14.0121295 92.0107063,13.9112086 92.0963599,13.8180495 L95.1584583,11.069869 C95.2012851,11.0232894 95.2512489,11 95.3083512,11 L96.7002141,11 Z" id="cmsc11111" fill="#FFFFFF" fill-rule="nonzero"></path>
</svg>